<svg xmlns="http://www.w3.org/2000/svg" xmlns:xlink="http://www.w3.org/1999/xlink" viewBox="0 0 38.43 16.43"><defs><linearGradient id="1d6ce1c9-15a5-41c6-97ef-c61ec0ace3d7" x1="-301.31" y1="23.29" x2="-288.5" y2="3.15" gradientTransform="matrix(1, 0, -0.36, 1, 318.07, 0)" gradientUnits="userSpaceOnUse"><stop offset="0" stop-color="#666"/><stop offset="0.25" stop-color="#4d4d4d"/><stop offset="0.5" stop-color="#333"/><stop offset="1" stop-color="#121212"/></linearGradient></defs><title>load4</title><g id="8b7e5cd3-923e-4478-9fd7-0fcce7f585b9" data-name="Layer 2"><g id="083e9030-d6b2-4a8b-9e78-1fdffe971121" data-name="Layer 1"><path d="M21.53,7.25a1.92,1.92,0,0,1-.7,1.57,2.92,2.92,0,0,1-1.91.58A3,3,0,0,1,17.23,9V7.67a3.52,3.52,0,0,0,1.7.51,1.47,1.47,0,0,0,.83-.2.63.63,0,0,0,.3-.55A.93.93,0,0,0,20,7.07a1,1,0,0,0-.18-.29,5,5,0,0,0-.59-.49,3.19,3.19,0,0,1-.92-.93,2,2,0,0,1-.27-1,2.05,2.05,0,0,1,.29-1.1,2,2,0,0,1,.84-.75,2.79,2.79,0,0,1,1.25-.27,3.84,3.84,0,0,1,1.89.47l-.52,1.11a3.22,3.22,0,0,0-1.37-.35,1,1,0,0,0-.65.21.71.71,0,0,0-.25.57.84.84,0,0,0,.16.51,2.86,2.86,0,0,0,.7.57,2.83,2.83,0,0,1,.86.84A2,2,0,0,1,21.53,7.25Z" fill="#2062af"/><path d="M26.18,7.55l2.62-5.19h2L29.34,9.3H28L28.69,6q.25-1.17.5-2.1h0L26.47,9.3H25.13l-.29-5.38h0q-.05.42-.18,1.1T23.75,9.3H22.44l1.47-6.95h1.92l.32,5.19Z" fill="#2062af"/><path d="M34.5,2.36a2.87,2.87,0,0,1,1.64.39A1.32,1.32,0,0,1,36.7,3.9a1.75,1.75,0,0,1-.39,1.18,1.93,1.93,0,0,1-1.12.62v0a1.43,1.43,0,0,1,.76.46,1.29,1.29,0,0,1,.28.86,2,2,0,0,1-.73,1.68,3.11,3.11,0,0,1-2,.59H31l1.47-6.95ZM32.72,8.09h.86a1.28,1.28,0,0,0,.87-.28A1,1,0,0,0,34.76,7q0-.77-.87-.77H33.1Zm.63-3h.71a1.37,1.37,0,0,0,.86-.23.8.8,0,0,0,.29-.66q0-.65-.81-.65h-.72Z" fill="#2062af"/><polygon points="34.38 16.43 0 16.43 2.33 10.01 36.72 10.01 34.38 16.43" fill="url(#1d6ce1c9-15a5-41c6-97ef-c61ec0ace3d7)"/><path d="M5.86,12.33a1.12,1.12,0,0,1-.42.94,1.85,1.85,0,0,1-1.17.33H4L3.71,15H3.12l.77-3.62h.83a1.27,1.27,0,0,1,.85.25A.93.93,0,0,1,5.86,12.33ZM4.1,13.1h.23a1,1,0,0,0,.68-.2.68.68,0,0,0,.24-.56A.49.49,0,0,0,5.11,12a.67.67,0,0,0-.44-.12H4.37Z" fill="#c4c4c3"/><path d="M7,15l.77-3.62h.59l-.66,3.11H9.07L9,15Z" fill="#c4c4c3"/><path d="M12.45,13.95h-1.2l-.52,1H10.1L12,11.33h.68L13.13,15h-.58Zm0-.51q-.1-1-.11-1.25c0-.14,0-.26,0-.34a8.13,8.13,0,0,1-.35.76l-.42.83Z" fill="#c4c4c3"/><path d="M15.71,15h-.59l.65-3.11h-.94l.11-.51h2.47l-.11.51h-.94Z" fill="#c4c4c3"/><path d="M18.2,15,19,11.33h.58L18.78,15Z" fill="#c4c4c3"/><path d="M23.5,15h-.64l-1-2.88h0l0,.17-.09.53q0,.16-.46,2.18h-.54l.77-3.62h.66l1,2.84h0c0-.09,0-.25.08-.48s.07-.4.1-.5l.4-1.86h.54Z" fill="#c4c4c3"/><path d="M28.76,11.33l-.5,2.37a1.7,1.7,0,0,1-.51,1,1.49,1.49,0,0,1-1,.32,1.2,1.2,0,0,1-.83-.26,1,1,0,0,1-.29-.75,1.87,1.87,0,0,1,0-.42l.48-2.23h.59l-.48,2.24a1.73,1.73,0,0,0-.05.39.51.51,0,0,0,.15.39.62.62,0,0,0,.45.14.79.79,0,0,0,.57-.2,1.23,1.23,0,0,0,.31-.65l.49-2.32Z" fill="#c4c4c3"/><path d="M31.33,15l-.28-3h0a7.12,7.12,0,0,1-.14.84L30.44,15H29.9l.77-3.62h.8l.27,2.84h0l1.5-2.84h.85L33.34,15h-.56l.45-2.16c.06-.31.13-.59.21-.85h0l-1.59,3Z" fill="#c4c4c3"/><path d="M36.56,1.49l.06-.77h.14l.1.28.05.15,0,.13v0L37.09,1l.11-.28h.14l.07.77h-.12l0-.3,0-.31-.11.31L37,1.48h-.09l-.1-.29-.1-.3s0,.13,0,.3l0,.3Z" fill="#64666a"/><path d="M38,1.49l-.18-.29h-.1v.29h-.12V.72h.21A.3.3,0,0,1,38,.79a.22.22,0,0,1,.07.18.24.24,0,0,1,0,.14.23.23,0,0,1-.11.08l.2.31ZM37.68.82V1.1h.11a.15.15,0,0,0,.11,0,.14.14,0,0,0,0-.1c0-.09-.05-.14-.15-.14Z" fill="#64666a"/><circle cx="37.31" cy="1.12" r="1.07" fill="none" stroke="#64666a" stroke-miterlimit="10" stroke-width="0.1"/></g></g></svg>