<svg xmlns="http://www.w3.org/2000/svg" xmlns:xlink="http://www.w3.org/1999/xlink" viewBox="0 0 38.42 19.29"><defs><linearGradient id="44496d20-d9b5-448f-bd15-c5921764985d" x1="-273.94" y1="26.07" x2="-261.28" y2="6.18" gradientTransform="matrix(1, 0, -0.36, 1, 291.61, 0)" gradientUnits="userSpaceOnUse"><stop offset="0" stop-color="#666"/><stop offset="0.25" stop-color="#4d4d4d"/><stop offset="0.5" stop-color="#333"/><stop offset="1" stop-color="#121212"/></linearGradient></defs><title>load3</title><g id="487420fb-333d-48f3-b59a-ca09618c2996" data-name="Layer 2"><g id="c852860c-4817-4e3f-85e6-4727fdd98971" data-name="Layer 2"><polygon points="33.96 19.29 0 19.29 2.31 12.95 36.27 12.95 33.96 19.29" fill="url(#44496d20-d9b5-448f-bd15-c5921764985d)"/><path d="M5.78,15.24a1.11,1.11,0,0,1-.41.93,1.83,1.83,0,0,1-1.16.33H3.95l-.28,1.34H3.08l.76-3.57h.82a1.26,1.26,0,0,1,.84.25A.92.92,0,0,1,5.78,15.24ZM4.05,16h.23A1,1,0,0,0,5,15.81a.67.67,0,0,0,.24-.55A.49.49,0,0,0,5,14.87a.67.67,0,0,0-.44-.12H4.32Z" fill="#c4c4c3"/><path d="M7,17.84l.76-3.57h.58l-.65,3.07H9l-.1.5Z" fill="#c4c4c3"/><path d="M12.29,16.84H11.11l-.51,1H10l1.91-3.58h.67L13,17.84h-.57Zm0-.51q-.1-1-.11-1.23c0-.14,0-.26,0-.34a8.25,8.25,0,0,1-.35.75l-.42.82Z" fill="#c4c4c3"/><path d="M15.52,17.84h-.58l.65-3.07h-.93l.11-.5h2.44l-.1.5h-.93Z" fill="#c4c4c3"/><path d="M18,17.84l.76-3.57h.57l-.76,3.57Z" fill="#c4c4c3"/><path d="M23.21,17.84h-.64l-1-2.84h0l0,.17-.09.52q0,.16-.45,2.15h-.54l.76-3.57h.66l1,2.81h0c0-.09,0-.24.08-.47s.07-.39.1-.5l.39-1.84H24Z" fill="#c4c4c3"/><path d="M28.41,14.26l-.49,2.34a1.67,1.67,0,0,1-.51,1,1.46,1.46,0,0,1-1,.32,1.19,1.19,0,0,1-.82-.26,1,1,0,0,1-.29-.75,1.86,1.86,0,0,1,0-.42l.47-2.2h.58l-.47,2.21a1.66,1.66,0,0,0-.05.39.51.51,0,0,0,.15.39.62.62,0,0,0,.44.14.79.79,0,0,0,.56-.2,1.22,1.22,0,0,0,.3-.64l.49-2.29Z" fill="#c4c4c3"/><path d="M30.94,17.84l-.28-3h0a7.16,7.16,0,0,1-.13.83l-.45,2.14h-.54l.76-3.57h.79l.27,2.81h0l1.48-2.81h.84l-.75,3.57h-.56l.45-2.13q.1-.45.21-.84h0l-1.57,3Z" fill="#c4c4c3"/><path d="M17.74,8.91a2.35,2.35,0,0,1-.86,1.92,3.56,3.56,0,0,1-2.33.71A3.67,3.67,0,0,1,12.48,11V9.42a4.3,4.3,0,0,0,2.08.63,1.8,1.8,0,0,0,1-.25.77.77,0,0,0,.37-.68,1.14,1.14,0,0,0-.08-.44,1.25,1.25,0,0,0-.22-.35,6.1,6.1,0,0,0-.72-.59A3.87,3.87,0,0,1,13.8,6.6a2.39,2.39,0,0,1-.33-1.21,2.52,2.52,0,0,1,.36-1.34,2.43,2.43,0,0,1,1-.92,3.42,3.42,0,0,1,1.53-.33,4.7,4.7,0,0,1,2.3.57l-.63,1.35a3.93,3.93,0,0,0-1.67-.43,1.18,1.18,0,0,0-.79.26.86.86,0,0,0-.31.69,1,1,0,0,0,.19.62,3.52,3.52,0,0,0,.86.7,3.45,3.45,0,0,1,1.05,1A2.43,2.43,0,0,1,17.74,8.91Z" fill="#2062af"/><path d="M23.41,9.27l3.2-6.35h2.46l-1.79,8.49H25.64l.84-4q.31-1.43.61-2.56h0l-3.3,6.58H22.13l-.35-6.58h0q-.06.51-.22,1.34t-1.09,5.24h-1.6l1.79-8.49H23l.39,6.35Z" fill="#2062af"/><path d="M33.58,2.93a3.52,3.52,0,0,1,2,.47,1.61,1.61,0,0,1,.68,1.41,2.14,2.14,0,0,1-.48,1.44A2.36,2.36,0,0,1,34.42,7V7a1.76,1.76,0,0,1,.93.56,1.57,1.57,0,0,1,.35,1,2.49,2.49,0,0,1-.89,2,3.79,3.79,0,0,1-2.46.72h-3l1.79-8.49Zm-2.18,7h1a1.57,1.57,0,0,0,1.06-.34,1.17,1.17,0,0,0,.39-.93q0-.94-1.06-.94h-1Zm.77-3.64H33A1.66,1.66,0,0,0,34.09,6a1,1,0,0,0,.35-.81q0-.8-1-.8h-.88Z" fill="#2062af"/><path d="M36,1.89l.08-1h.18l.13.36.07.19.05.16,0,.06.15-.41.14-.36H37l.09,1H37l0-.39,0-.39-.14.39-.14.37h-.12l-.13-.37-.13-.39s0,.17,0,.39l0,.39Z" fill="#64666a"/><path d="M37.84,1.89l-.23-.37h-.13v.37h-.15v-1h.27a.38.38,0,0,1,.26.08.29.29,0,0,1,.09.22.3.3,0,0,1-.05.18.28.28,0,0,1-.14.1l.26.4ZM37.48,1v.36h.14a.19.19,0,0,0,.14,0,.18.18,0,0,0,0-.13c0-.12-.07-.18-.2-.18Z" fill="#64666a"/><circle cx="37" cy="1.42" r="1.37" fill="none" stroke="#64666a" stroke-miterlimit="10" stroke-width="0.1"/></g></g></svg>